# xmcd
#
# Track frame offsets:
#	150
#	19243
#	41933
#	62936
#	81837
#	106988
#	126851
#
# Disc length: 2039 seconds
#
# Revision: 0
# Processed by: cddbd v1.4PL0 Copyright (c) Steve Scherf et al.
# Submitted via: dBpowerAMP V4.0
#
DISCID=5f07f507
DTITLE=B.B. King - Midnight Believer
DYEAR=1978
DGENRE=Blues
TTITLE0=When It All Comes Down
TTITLE1=Midnight Believer
TTITLE2=I Just Can't Leave You Alone
TTITLE3=Hold On
TTITLE4=Never Make A Move To Soon
TTITLE5=World Full  Of Strrangers
TTITLE6=Let Me Make You Cry A Little Longer
EXTD=
EXTT0=
EXTT1=
EXTT2=
EXTT3=
EXTT4=
EXTT5=
EXTT6=
PLAYORDER=
